<svg width="1440" height="253" viewBox="0 0 1440 253" fill="none" xmlns="http://www.w3.org/2000/svg">
<g clip-path="url(#clip0_2_7769)">
<rect width="1440" height="252" transform="translate(0 0.5)" fill="#FDFDFD"/>
<rect y="0.5" width="1440" height="252" fill="url(#paint0_linear_2_7769)"/>
<g opacity="0.72">
<g opacity="0.4">
<path opacity="0.72" d="M1557.44 -315.141L1216.34 -10.9742L1211.57 -16.3329L1552.66 -320.5L1557.44 -315.141ZM1564.86 -306.832L1223.76 -2.66498L1228.54 2.69373L1569.63 -301.473L1564.86 -306.832ZM1577.07 -293.142L1235.98 11.0247L1240.75 16.3834L1581.84 -287.784L1577.07 -293.142ZM1589.26 -279.474L1248.17 24.6927L1252.94 30.0515L1594.04 -274.116L1589.26 -279.474ZM1601.46 -265.785L1260.36 38.3824L1265.14 43.7411L1606.23 -260.426L1601.46 -265.785ZM1613.65 -252.117L1272.56 52.0504L1277.33 57.4091L1618.42 -246.758L1613.65 -252.117ZM1625.86 -238.427L1284.77 65.7401L1289.54 71.0988L1630.64 -233.068L1625.86 -238.427ZM1638.06 -224.759L1296.96 79.4081L1301.74 84.7668L1642.83 -219.4L1638.06 -224.759ZM1650.25 -211.069L1309.16 93.0977L1313.93 98.4565L1655.02 -205.711L1650.25 -211.069ZM1662.44 -197.401L1321.35 106.766L1326.12 112.124L1667.21 -192.043L1662.44 -197.401ZM1674.65 -183.712L1333.56 120.455L1338.34 125.814L1679.43 -178.353L1674.65 -183.712ZM1686.85 -170.044L1345.76 134.123L1350.53 139.482L1691.62 -164.685L1686.85 -170.044ZM1699.04 -156.354L1357.95 147.813L1362.72 153.172L1703.81 -150.995L1699.04 -156.354ZM1711.23 -142.686L1370.14 161.481L1374.91 166.84L1716.01 -137.327L1711.23 -142.686ZM1723.43 -128.996L1382.33 175.171L1387.11 180.529L1728.2 -123.637L1723.43 -128.996ZM1735.64 -115.307L1394.55 188.86L1399.32 194.219L1740.41 -109.948L1735.64 -115.307ZM1747.83 -101.639L1406.74 202.528L1411.51 207.887L1752.61 -96.2799L1747.83 -101.639ZM1760.03 -87.9489L1418.93 216.218L1423.71 221.577L1764.8 -82.5902L1760.03 -87.9489ZM1772.22 -74.2809L1431.13 229.886L1435.9 235.245L1776.99 -68.9221L1772.22 -74.2809ZM1784.43 -60.5912L1443.34 243.576L1448.11 248.935L1789.21 -55.2325L1784.43 -60.5912ZM1796.63 -46.9232L1455.53 257.244L1460.31 262.603L1801.4 -41.5645L1796.63 -46.9232ZM1808.82 -33.2336L1467.73 270.933L1472.5 276.292L1813.59 -27.8748L1808.82 -33.2336ZM1821.01 -19.5655L1479.92 284.602L1484.69 289.96L1825.78 -14.2068L1821.01 -19.5655Z" fill="white"/>
</g>
<g opacity="0.3">
<path opacity="0.72" d="M578.373 -272.836L350.313 -69.4647L347.124 -73.0445L575.184 -276.416L578.373 -272.836ZM583.342 -267.26L355.281 -63.8891L358.471 -60.3094L586.531 -263.68L583.342 -267.26ZM591.499 -258.126L363.439 -54.7554L366.628 -51.1757L594.688 -254.547L591.499 -258.126ZM599.656 -248.971L371.596 -45.6L374.785 -42.0204L602.846 -245.391L599.656 -248.971ZM607.814 -239.816L379.754 -36.4447L382.943 -32.8649L611.003 -236.236L607.814 -239.816ZM615.971 -230.682L387.889 -27.3109L391.079 -23.7312L619.139 -227.102L615.971 -230.682ZM624.129 -221.527L396.047 -18.1556L399.236 -14.5758L627.296 -217.947L624.129 -221.527ZM632.264 -212.393L404.204 -9.02188L407.393 -5.44211L635.454 -208.813L632.264 -212.393ZM640.422 -203.238L412.362 0.133575L415.551 3.7132L643.611 -199.658L640.422 -203.238ZM648.579 -194.104L420.519 9.26718L423.708 12.847L651.768 -190.524L648.579 -194.104ZM656.737 -184.949L428.676 18.4226L431.866 22.0023L659.947 -181.369L656.737 -184.949ZM664.894 -175.793L436.834 27.578L440.023 31.1577L668.083 -172.213L664.894 -175.793ZM673.051 -166.659L444.991 36.7117L448.18 40.2913L676.241 -163.08L673.051 -166.659ZM681.209 -157.504L453.149 45.867L456.338 49.4468L684.398 -153.924L681.209 -157.504ZM689.366 -148.37L461.306 55.0008L464.495 58.5804L692.555 -144.791L689.366 -148.37ZM697.524 -139.215L469.463 64.1561L472.653 67.7358L700.713 -135.635L697.524 -139.215ZM705.681 -130.059L477.621 73.3115L480.81 76.8912L708.87 -126.48L705.681 -130.059ZM713.838 -120.926L485.778 82.4451L488.967 86.0249L717.028 -117.346L713.838 -120.926ZM721.996 -111.77L493.936 91.6006L497.125 95.1804L725.185 -108.191L721.996 -111.77ZM730.153 -102.637L502.093 100.734L505.282 104.314L733.342 -99.0571L730.153 -102.637ZM738.311 -93.4814L510.25 109.89L513.44 113.469L741.5 -89.9016L738.311 -93.4814ZM746.468 -84.3476L518.408 119.023L521.597 122.603L749.657 -80.768L746.468 -84.3476ZM754.625 -75.1923L526.565 128.179L529.754 131.758L757.815 -71.6125L754.625 -75.1923Z" fill="white"/>
</g>
<g opacity="0.8">
<path opacity="0.72" d="M-31.7506 -114.92L-259.811 88.4508L-263 84.871L-34.9398 -118.5L-31.7506 -114.92ZM-26.7824 -109.345L-254.843 94.0265L-251.653 97.6061L-23.5932 -105.765L-26.7824 -109.345ZM-18.625 -100.211L-246.685 103.16L-243.496 106.74L-15.4357 -96.6312L-18.625 -100.211ZM-10.4676 -91.0556L-238.528 112.316L-235.339 115.895L-7.2784 -87.4759L-10.4676 -91.0556ZM-2.31018 -81.9002L-230.37 121.471L-227.181 125.051L0.879028 -78.3204L-2.31018 -81.9002ZM5.84726 -72.7664L-222.235 130.605L-219.045 134.184L9.01474 -69.1868L5.84726 -72.7664ZM14.0046 -63.6111L-214.077 139.76L-210.888 143.34L17.1722 -60.0313L14.0046 -63.6111ZM22.1403 -54.4774L-205.92 148.894L-202.731 152.473L25.3295 -50.8977L22.1403 -54.4774ZM30.2978 -45.322L-197.762 158.049L-194.573 161.629L33.487 -41.7423L30.2978 -45.322ZM38.4552 -36.1883L-189.605 167.183L-186.416 170.762L41.6444 -32.6085L38.4552 -36.1883ZM46.6125 -27.033L-181.448 176.338L-178.258 179.918L49.8235 -23.4532L46.6125 -27.033ZM54.77 -17.8775L-173.29 185.493L-170.101 189.073L57.9592 -14.2978L54.77 -17.8775ZM62.9274 -8.7438L-165.133 194.627L-161.944 198.207L66.1166 -5.16416L62.9274 -8.7438ZM71.0847 0.411522L-156.975 203.783L-153.786 207.362L74.274 3.99129L71.0847 0.411522ZM79.2422 9.54526L-148.818 212.916L-145.629 216.496L82.4314 13.1249L79.2422 9.54526ZM87.3996 18.7006L-140.661 222.072L-137.471 225.651L90.5888 22.2803L87.3996 18.7006ZM95.557 27.856L-132.503 231.227L-129.314 234.807L98.7462 31.4357L95.557 27.856ZM103.714 36.9896L-124.346 240.361L-121.157 243.94L106.904 40.5694L103.714 36.9896ZM111.872 46.1451L-116.188 249.516L-112.999 253.096L115.061 49.7247L111.872 46.1451ZM120.029 55.2787L-108.031 258.65L-104.842 262.229L123.218 58.8585L120.029 55.2787ZM128.187 64.4342L-99.8736 267.805L-96.6844 271.385L131.376 68.0139L128.187 64.4342ZM136.344 73.5679L-91.7162 276.939L-88.527 280.519L139.533 77.1475L136.344 73.5679ZM144.501 82.7232L-83.5588 286.094L-80.3696 289.674L147.691 86.303L144.501 82.7232Z" fill="white"/>
</g>
<g opacity="0.2">
<path opacity="0.72" d="M653.605 365.408L473.992 270.722L474.412 267.969L654.025 362.655L653.605 365.408ZM652.954 369.688L473.341 275.002L472.922 277.755L652.535 372.441L652.954 369.688ZM651.884 376.721L472.271 282.035L471.851 284.788L651.464 379.474L651.884 376.721ZM650.811 383.784L471.198 289.098L470.778 291.85L650.391 386.536L650.811 383.784ZM649.74 390.817L470.128 296.131L469.708 298.883L649.321 393.569L649.74 390.817ZM648.667 397.88L469.054 303.194L468.635 305.946L648.248 400.632L648.667 397.88ZM647.597 404.913L467.984 310.227L467.565 312.979L647.177 407.665L647.597 404.913ZM646.524 411.975L466.911 317.289L466.491 320.042L646.104 414.728L646.524 411.975ZM645.454 419.009L465.841 324.323L465.421 327.075L645.034 421.761L645.454 419.009ZM644.38 426.071L464.768 331.385L464.348 334.138L643.961 428.824L644.38 426.071ZM643.31 433.104L463.697 338.418L463.278 341.171L642.89 435.857L643.31 433.104ZM642.253 440.159L462.64 345.473L462.221 348.225L641.834 442.911L642.253 440.159ZM641.167 447.2L461.554 352.514L461.134 355.266L640.747 449.952L641.167 447.2ZM640.11 454.255L460.497 359.569L460.077 362.321L639.69 457.007L640.11 454.255ZM639.023 461.296L459.41 366.61L458.991 369.362L638.604 464.048L639.023 461.296ZM637.953 468.329L458.34 373.643L457.92 376.395L637.533 471.081L637.953 468.329ZM636.88 475.391L457.267 380.706L456.847 383.458L636.46 478.144L636.88 475.391ZM635.809 482.425L456.196 387.739L455.777 390.491L635.39 485.177L635.809 482.425ZM634.736 489.487L455.123 394.801L454.704 397.554L634.317 492.24L634.736 489.487ZM633.666 496.52L454.053 401.834L453.633 404.587L633.246 499.273L633.666 496.52ZM632.609 503.575L452.996 408.889L452.577 411.641L632.189 506.327L632.609 503.575ZM631.522 510.616L451.91 415.93L451.49 418.682L631.103 513.368L631.522 510.616ZM630.465 517.671L450.853 422.985L450.433 425.737L630.046 520.423L630.465 517.671Z" fill="white"/>
</g>
</g>
</g>
<defs>
<linearGradient id="paint0_linear_2_7769" x1="0" y1="126.5" x2="1440" y2="126.5" gradientUnits="userSpaceOnUse">
<stop stop-color="#FFAA00"/>
<stop offset="1" stop-color="#FFD581"/>
</linearGradient>
<clipPath id="clip0_2_7769">
<rect width="1440" height="252" fill="white" transform="translate(0 0.5)"/>
</clipPath>
</defs>
</svg>
